<mxfile host="65bd71144e">
    <diagram id="KAcNno0WRUDkMlt7icc1" name="Page-1">
        <mxGraphModel dx="467" dy="1368" grid="1" gridSize="10" guides="1" tooltips="1" connect="1" arrows="1" fold="1" page="1" pageScale="1" pageWidth="850" pageHeight="1100" math="0" shadow="0">
            <root>
                <mxCell id="0"/>
                <mxCell id="1" parent="0"/>
                <mxCell id="4" value="" style="edgeStyle=none;html=1;" edge="1" parent="1" source="2" target="3">
                    <mxGeometry relative="1" as="geometry"/>
                </mxCell>
                <mxCell id="10" style="edgeStyle=none;html=1;entryX=0;entryY=0.5;entryDx=0;entryDy=0;" edge="1" parent="1" source="2" target="9">
                    <mxGeometry relative="1" as="geometry"/>
                </mxCell>
                <mxCell id="2" value="Intent: Whenever we hover our mouse over element, we can tell if this element has been defined or not" style="rounded=0;whiteSpace=wrap;html=1;" vertex="1" parent="1">
                    <mxGeometry x="80" y="90" width="120" height="110" as="geometry"/>
                </mxCell>
                <mxCell id="5" style="edgeStyle=none;html=1;entryX=0;entryY=0.5;entryDx=0;entryDy=0;" edge="1" parent="1" source="3" target="6">
                    <mxGeometry relative="1" as="geometry">
                        <mxPoint x="600" y="-50" as="targetPoint"/>
                    </mxGeometry>
                </mxCell>
                <mxCell id="8" style="edgeStyle=none;html=1;entryX=0;entryY=0.5;entryDx=0;entryDy=0;" edge="1" parent="1" source="3" target="7">
                    <mxGeometry relative="1" as="geometry"/>
                </mxCell>
                <mxCell id="3" value="Option 1: As we trigger a mouse over event on element, we will try to see if current element has been defined in the background" style="rounded=0;whiteSpace=wrap;html=1;" vertex="1" parent="1">
                    <mxGeometry x="370" width="120" height="110" as="geometry"/>
                </mxCell>
                <mxCell id="6" value="Pros? it is easy to implement and the logic is clear and straightforward" style="rounded=0;whiteSpace=wrap;html=1;" vertex="1" parent="1">
                    <mxGeometry x="600" y="-110" width="120" height="110" as="geometry"/>
                </mxCell>
                <mxCell id="7" value="cons? slow process" style="rounded=0;whiteSpace=wrap;html=1;" vertex="1" parent="1">
                    <mxGeometry x="620" y="50" width="120" height="110" as="geometry"/>
                </mxCell>
                <mxCell id="11" style="edgeStyle=none;html=1;entryX=0;entryY=0.5;entryDx=0;entryDy=0;" edge="1" parent="1" source="9" target="12">
                    <mxGeometry relative="1" as="geometry">
                        <mxPoint x="640" y="200" as="targetPoint"/>
                    </mxGeometry>
                </mxCell>
                <mxCell id="13" style="edgeStyle=none;html=1;entryX=0;entryY=0.5;entryDx=0;entryDy=0;" edge="1" parent="1" source="9" target="14">
                    <mxGeometry relative="1" as="geometry">
                        <mxPoint x="640" y="320" as="targetPoint"/>
                    </mxGeometry>
                </mxCell>
                <mxCell id="9" value="Option 2:&amp;nbsp; Check all locator against current page once and mark the existing locator in its dom tree. So that based on dom element, we can tell it is defined" style="rounded=0;whiteSpace=wrap;html=1;" vertex="1" parent="1">
                    <mxGeometry x="380" y="180" width="120" height="110" as="geometry"/>
                </mxCell>
                <mxCell id="12" value="pro: compare it once and cache the information. Fast" style="rounded=0;whiteSpace=wrap;html=1;" vertex="1" parent="1">
                    <mxGeometry x="640" y="180" width="120" height="80" as="geometry"/>
                </mxCell>
                <mxCell id="16" value="" style="edgeStyle=none;html=1;" edge="1" parent="1" source="14" target="15">
                    <mxGeometry relative="1" as="geometry"/>
                </mxCell>
                <mxCell id="14" value="cons: What if page just after it finish initial loading?" style="rounded=0;whiteSpace=wrap;html=1;" vertex="1" parent="1">
                    <mxGeometry x="650" y="290" width="120" height="80" as="geometry"/>
                </mxCell>
                <mxCell id="15" value="What if we can detect the change on the browser. (by subscripting to mutation change event)" style="rounded=0;whiteSpace=wrap;html=1;fillColor=#60a917;fontColor=#ffffff;strokeColor=#2D7600;" vertex="1" parent="1">
                    <mxGeometry x="850" y="290" width="120" height="80" as="geometry"/>
                </mxCell>
            </root>
        </mxGraphModel>
    </diagram>
    <diagram id="OKXLAh2EtETAu_Mhb5ce" name="Page-2">
        <mxGraphModel dx="467" dy="268" grid="1" gridSize="10" guides="1" tooltips="1" connect="1" arrows="1" fold="1" page="1" pageScale="1" pageWidth="850" pageHeight="1100" math="0" shadow="0">
            <root>
                <mxCell id="Zh2Wf87pcKyi7E-kTNz_-0"/>
                <mxCell id="Zh2Wf87pcKyi7E-kTNz_-1" parent="Zh2Wf87pcKyi7E-kTNz_-0"/>
                <mxCell id="Zh2Wf87pcKyi7E-kTNz_-2" value="data grid" style="rounded=0;whiteSpace=wrap;html=1;" vertex="1" parent="Zh2Wf87pcKyi7E-kTNz_-1">
                    <mxGeometry x="70" y="60" width="330" height="140" as="geometry"/>
                </mxCell>
                <mxCell id="Zh2Wf87pcKyi7E-kTNz_-3" value="text" style="rounded=0;whiteSpace=wrap;html=1;" vertex="1" parent="Zh2Wf87pcKyi7E-kTNz_-1">
                    <mxGeometry x="190" y="100" width="120" height="60" as="geometry"/>
                </mxCell>
            </root>
        </mxGraphModel>
    </diagram>
</mxfile>